<?xml version="1.0" standalone="no"?>
<!DOCTYPE svg PUBLIC "-//W3C//DTD SVG 20010904//EN"
 "http://www.w3.org/TR/2001/REC-SVG-20010904/DTD/svg10.dtd">
<svg version="1.0" xmlns="http://www.w3.org/2000/svg"
 width="500.000000pt" height="500.000000pt" viewBox="0 0 500.000000 500.000000"
 preserveAspectRatio="xMidYMid meet">
<metadata>
Created by potrace 1.16, written by Peter Selinger 2001-2019
</metadata>
<g transform="translate(0.000000,500.000000) scale(0.100000,-0.100000)"
fill="#000000" stroke="none">
<path d="M3010 4226 c-160 -36 -380 -146 -458 -229 l-23 -24 62 -16 62 -16 90
55 c247 149 539 163 801 39 31 -15 92 -54 136 -87 380 -286 529 -754 406
-1268 -19 -80 -39 -157 -45 -172 -19 -51 7 -39 44 19 125 199 179 434 156 672
-17 161 -72 341 -141 452 -16 27 -30 53 -30 57 0 19 -90 136 -159 207 -97 100
-137 131 -246 193 -108 61 -204 99 -303 118 -88 17 -276 17 -352 0z"/>
<path d="M2344 4192 c-70 -35 -72 -36 -78 -80 -3 -25 -6 -67 -6 -95 l0 -49 65
4 c35 2 67 6 70 9 7 7 28 214 23 233 -2 10 -21 5 -74 -22z"/>
<path d="M2045 4153 c-53 -13 -290 -105 -356 -138 -321 -162 -611 -444 -777
-757 -132 -250 -184 -437 -207 -748 -7 -95 8 -302 30 -427 33 -178 149 -453
259 -613 127 -185 301 -359 478 -478 143 -96 382 -204 548 -247 241 -62 642
-59 895 7 442 116 846 429 1089 846 74 126 154 354 186 534 19 105 39 348 29
348 -3 0 -38 -43 -79 -95 -41 -53 -96 -122 -122 -153 -39 -49 -50 -72 -67
-145 -37 -155 -139 -399 -201 -477 l-20 -25 0 116 c0 189 -27 236 -177 319
-54 29 -109 61 -123 70 -14 10 -79 45 -145 80 -66 34 -163 88 -215 120 -110
66 -160 93 -160 85 0 -3 18 -41 40 -85 22 -44 40 -84 40 -90 0 -10 -204 -409
-229 -448 -6 -10 -17 -5 -46 21 l-39 36 38 41 c53 58 104 141 171 273 l58 114
-22 57 c-11 31 -30 75 -41 96 -17 33 -20 59 -20 168 l0 129 41 6 c136 18 222
207 158 347 -11 25 -31 56 -44 70 -23 24 -23 26 -9 85 7 33 14 101 14 150 0
162 -41 265 -148 374 -116 118 -248 163 -474 163 -221 -1 -357 -35 -536 -136
l-114 -63 39 -15 38 -16 -45 -12 c-25 -7 -73 -10 -107 -8 l-62 4 6 -26 c15
-60 56 -134 103 -184 l50 -53 -11 -79 c-6 -43 -8 -110 -5 -147 6 -63 4 -70
-21 -104 -21 -28 -28 -49 -31 -99 -5 -80 8 -113 65 -163 36 -32 47 -51 62
-105 20 -74 14 -91 -28 -75 -14 6 -40 8 -58 4 -97 -18 -78 -175 20 -175 50 0
79 28 86 81 3 24 10 43 16 42 5 -1 20 -36 33 -77 26 -87 20 -84 145 -66 100
15 167 31 167 40 0 10 -51 20 -100 20 -34 0 -70 23 -70 45 0 4 38 5 85 3 l86
-4 -31 19 c-16 10 -48 21 -70 24 -78 11 -80 82 -5 122 25 13 45 27 45 31 0 8
-76 20 -131 20 -36 0 -39 2 -39 28 0 15 10 75 21 134 12 59 19 118 15 132 -9
38 -62 93 -103 108 l-35 13 6 65 c4 36 9 80 12 98 l6 32 68 0 c122 0 282 43
416 111 42 22 77 39 78 39 1 0 2 -39 2 -87 -1 -113 18 -153 120 -254 l75 -76
-17 -52 c-31 -96 -8 -208 61 -289 l25 -30 -52 -45 c-115 -96 -273 -185 -411
-232 -93 -31 -257 -58 -319 -52 l-47 4 14 -27 14 -27 -97 -53 c-53 -30 -119
-65 -147 -78 -106 -52 -401 -218 -429 -241 -10 -9 -30 -36 -44 -61 -24 -40
-27 -58 -32 -170 l-5 -125 -53 100 c-151 286 -200 494 -189 814 7 237 44 385
146 591 72 146 136 240 243 360 131 146 230 227 389 317 78 44 109 75 274 264
17 19 47 53 69 77 37 40 35 46 -9 35z m572 -365 c92 -34 186 -113 245 -208 31
-50 70 -177 75 -246 7 -93 -3 -165 -23 -157 -9 3 -14 20 -14 52 0 133 -64 310
-143 397 -57 63 -160 135 -242 170 l-60 25 55 -7 c30 -3 79 -15 107 -26z
m-192 -204 c-47 -39 -146 -92 -226 -121 -66 -24 -89 -27 -209 -27 -122 -1
-139 1 -175 21 l-40 23 80 -6 c161 -12 391 32 526 100 79 41 81 41 44 10z
m543 -526 c34 -31 52 -78 52 -133 0 -55 -18 -93 -62 -130 -27 -23 -39 -26 -76
-22 -113 12 -160 171 -79 263 17 20 40 40 51 45 32 13 86 2 114 -23z m-188
-597 l0 -190 -67 -47 c-38 -26 -107 -76 -156 -111 l-87 -64 -64 44 -64 44 65
64 c94 92 248 263 284 315 l31 45 -86 -61 c-202 -143 -493 -247 -565 -201 -16
10 -16 11 92 31 91 18 252 76 334 120 68 36 256 170 269 191 3 5 7 9 10 9 2 0
4 -85 4 -189z m428 -473 c8 -8 12 -65 12 -187 1 -139 4 -180 15 -195 19 -25
19 -60 0 -76 -12 -10 -15 -48 -17 -194 -3 -179 -3 -181 -25 -184 -28 -4 -26
-17 -23 188 2 156 1 166 -19 184 -26 24 -27 51 -1 83 18 24 20 41 20 203 0
191 4 212 38 178z m-675 -136 l67 -67 -41 -48 c-38 -44 -44 -47 -88 -47 -45 0
-50 3 -90 50 l-42 50 57 65 c32 36 60 65 64 65 3 0 36 -30 73 -68z m587 -22
c0 -14 -15 -27 -49 -45 -54 -27 -99 -83 -121 -149 -32 -100 32 -244 128 -287
31 -13 42 -24 42 -40 0 -19 -4 -21 -32 -15 -41 8 -116 66 -150 117 -14 22 -32
62 -39 89 l-13 50 -61 0 c-65 0 -93 14 -74 37 7 8 35 13 75 13 55 0 64 2 64
18 0 44 61 140 113 180 75 57 117 69 117 32z m215 -1 c76 -40 131 -113 150
-196 6 -33 7 -33 64 -33 61 0 88 -14 70 -37 -7 -8 -33 -13 -69 -13 l-58 0 -12
-49 c-16 -68 -59 -133 -112 -168 -47 -32 -103 -55 -112 -46 -17 18 -2 42 36
59 90 41 136 105 145 203 10 111 -37 194 -136 241 -48 22 -60 37 -44 53 12 12
37 7 78 -14z m-215 -123 c0 -13 -7 -27 -16 -30 -8 -3 -24 -27 -36 -52 -17 -40
-19 -53 -9 -84 6 -20 22 -47 36 -60 24 -23 35 -70 15 -70 -24 0 -78 62 -90
104 -20 71 -6 132 40 178 44 44 60 48 60 14z m194 -6 c19 -17 40 -47 46 -65 6
-19 18 -35 26 -35 17 0 19 -50 2 -50 -7 0 -23 -23 -35 -50 -25 -58 -81 -101
-96 -74 -6 11 -2 24 16 42 66 72 64 155 -7 213 -12 10 -17 22 -13 32 9 24 22
21 61 -13z m-770 -127 c8 -39 64 -482 72 -569 l6 -72 -70 -7 c-89 -9 -242 3
-242 19 1 6 9 76 20 156 11 80 29 225 41 323 l22 177 73 0 c71 0 73 -1 78 -27z"/>
<path d="M2850 3002 c-25 -25 -30 -38 -30 -77 0 -38 5 -52 29 -76 64 -64 161
-13 161 86 0 48 -35 85 -87 92 -37 5 -45 2 -73 -25z"/>
<path d="M3255 3570 c-7 -11 8 -42 29 -60 9 -7 16 -25 16 -41 0 -15 5 -31 10
-34 6 -3 10 -11 10 -18 0 -8 -3 -8 -12 1 -19 19 -33 14 -15 -6 10 -10 14 -22
10 -27 -5 -4 1 -5 11 -1 16 5 17 4 6 -9 -7 -8 -8 -15 -2 -15 19 0 32 26 20 38
-7 7 -9 12 -4 12 4 0 14 -7 22 -15 9 -8 11 -15 5 -15 -7 0 -9 -14 -6 -35 2
-19 0 -37 -5 -40 -15 -9 -12 -25 4 -25 7 0 16 -11 18 -25 3 -13 1 -22 -4 -19
-13 8 2 -49 16 -61 6 -5 12 -23 13 -40 2 -21 0 -25 -5 -12 -15 36 -1 -199 16
-255 18 -60 26 -69 36 -42 3 8 2 12 -4 9 -6 -3 -10 2 -10 12 0 11 -5 24 -11
30 -6 6 -14 49 -16 95 -3 46 -3 81 0 78 3 -3 7 -39 9 -79 3 -44 10 -77 16 -79
7 -2 13 -13 13 -25 1 -16 2 -18 6 -5 2 9 -1 26 -7 37 -9 17 -8 20 6 14 11 -4
15 -3 10 5 -3 6 2 15 11 21 17 10 17 11 -3 17 -17 5 -20 12 -18 52 1 26 -2 54
-7 62 -5 10 -9 -6 -10 -45 -3 -59 -3 -59 -6 -11 -5 58 1 78 22 70 11 -4 15
-21 16 -58 0 -40 2 -46 9 -29 10 25 2 93 -11 93 -5 0 -8 19 -7 43 1 36 2 38 5
10 6 -48 20 -40 17 10 -2 23 -3 44 -3 47 -1 2 -6 -1 -13 -8 -15 -15 -28 -15
-28 -1 0 5 5 7 12 3 8 -5 9 0 5 15 -4 18 -3 20 9 10 11 -9 14 -8 14 4 0 23
-17 30 -41 16 -12 -6 -19 -7 -16 -2 4 6 7 27 9 47 1 21 6 40 10 42 4 3 8 10 8
15 0 5 -10 1 -22 -11 -38 -35 -50 -15 -37 60 2 14 0 25 -6 25 -18 1 -55 25
-55 37 0 7 5 6 15 -2 18 -15 19 -7 4 21 -5 11 -15 16 -21 13 -7 -4 -8 -3 -4 5
4 6 12 9 17 6 5 -4 9 -1 9 5 0 6 6 8 13 4 6 -4 3 2 -7 14 -19 21 -32 30 -23
15 3 -5 -2 -15 -11 -23 -14 -13 -15 -12 -9 3 12 31 -32 83 -48 57z"/>
<path d="M3462 3526 c9 -7 19 -25 22 -41 3 -16 10 -31 16 -35 7 -4 11 -10 11
-14 -3 -23 0 -30 9 -16 6 9 10 10 10 3 0 -6 3 -19 7 -29 5 -12 3 -15 -6 -9
-19 11 -3 -37 17 -52 12 -10 17 -10 23 -1 14 22 21 0 8 -24 -8 -15 -13 -78
-14 -184 -1 -89 -6 -167 -10 -174 -5 -9 -4 -11 3 -6 8 5 12 -1 12 -14 0 -30
22 -20 31 13 9 35 0 71 -15 58 -8 -7 -11 12 -12 67 0 47 2 67 7 52 4 -14 7
-42 8 -63 1 -21 5 -36 10 -32 5 3 12 -3 15 -12 3 -10 4 -5 2 11 -2 16 1 38 8
49 8 15 8 21 -1 24 -16 6 -17 43 -2 43 6 0 8 7 5 16 -14 37 -19 67 -9 61 6 -4
11 4 11 18 0 23 -2 24 -13 9 -12 -18 -35 -12 -35 9 0 8 3 8 9 -1 4 -8 7 9 6
40 -4 73 -3 72 -20 58 -16 -13 -15 -16 -19 53 -1 16 -8 32 -15 37 -8 4 -11 15
-8 25 4 9 3 14 -1 11 -10 -6 -47 22 -39 30 10 10 -13 34 -32 34 -14 -1 -14 -2
1 -14z"/>
<path d="M3086 3501 c4 -7 10 -75 14 -150 6 -96 14 -156 30 -206 35 -109 33
-254 -5 -363 -32 -93 -89 -195 -147 -262 l-40 -45 23 -15 c12 -8 39 -25 60
-38 l38 -23 55 66 c66 81 117 181 153 300 23 77 27 109 27 220 0 143 -11 202
-65 332 -24 56 -47 91 -91 137 -33 33 -56 55 -52 47z"/>
<path d="M3731 3371 c-9 -6 -12 -21 -8 -47 27 -208 31 -278 20 -377 -20 -177
-94 -370 -191 -497 -27 -36 -84 -98 -127 -138 -43 -40 -76 -74 -74 -76 2 -1
26 -15 52 -30 l48 -27 33 21 c43 26 128 124 189 216 61 92 109 197 144 309 27
86 28 99 27 290 0 182 -2 207 -25 280 -21 70 -27 80 -49 83 -14 1 -31 -2 -39
-7z"/>
<path d="M1603 3202 c-7 -5 -26 -35 -42 -68 -88 -182 -104 -383 -44 -569 18
-59 93 -212 123 -255 l22 -30 48 27 48 27 -34 12 c-51 18 -102 61 -119 101
-19 45 -19 110 0 146 13 26 13 39 -2 124 -20 115 -9 233 31 335 28 69 32 108
16 139 -11 20 -27 24 -47 11z"/>
<path d="M2200 3138 c-63 -8 -78 -13 -97 -36 -28 -34 -28 -42 0 -42 48 0 64
-10 59 -37 -4 -22 -2 -24 17 -18 16 5 21 2 21 -13 0 -26 31 -52 63 -52 32 0
67 32 67 61 0 13 5 19 13 16 71 -26 74 -18 7 20 l-50 28 87 10 88 10 -51 33
c-56 35 -82 38 -224 20z"/>
<path d="M3942 2988 c-5 -7 -15 -49 -22 -93 -22 -154 -72 -330 -121 -428 -36
-73 -132 -208 -192 -273 l-58 -63 23 -15 c13 -8 36 -20 51 -27 28 -13 31 -11
73 36 141 158 252 394 294 626 19 105 28 213 18 232 -10 20 -51 23 -66 5z"/>
<path d="M3382 2858 c1 -15 6 -24 10 -22 10 6 10 1 2 -21 -5 -13 -8 -14 -15
-3 -7 10 -9 10 -9 0 0 -7 8 -25 17 -40 10 -17 11 -22 3 -14 -17 15 -30 16 -30
1 0 -5 5 -7 12 -3 8 5 9 2 5 -10 -4 -10 -7 -31 -7 -47 0 -17 -4 -28 -8 -25 -5
3 -7 20 -5 38 3 26 -1 21 -17 -22 -22 -61 -25 -72 -9 -50 8 12 9 11 6 -5 -2
-11 -10 -19 -17 -17 -10 2 -9 -3 4 -17 19 -21 9 -30 -11 -10 -8 8 -17 -3 -34
-40 -13 -28 -28 -51 -32 -51 -5 0 -5 -4 -2 -10 3 -5 1 -10 -5 -10 -6 0 -9 -4
-6 -9 3 -5 -1 -12 -10 -15 -9 -4 -14 -9 -10 -13 3 -3 -3 -13 -15 -21 -16 -11
-18 -17 -9 -26 9 -8 14 -8 17 2 3 6 9 9 14 6 6 -3 5 -12 -3 -22 -11 -15 -11
-15 4 -4 9 7 15 24 13 38 -2 19 0 22 11 13 18 -15 45 6 37 28 -4 11 -2 14 5 9
8 -5 10 -2 6 9 -4 8 0 23 7 33 13 15 12 16 -4 3 -36 -28 -27 -1 11 33 31 28
39 42 34 59 -5 19 -3 20 10 9 13 -10 18 -10 24 -1 4 8 3 9 -4 5 -8 -4 -16 3
-22 19 -14 37 -13 52 2 37 19 -19 28 -14 28 14 0 14 6 31 13 39 20 19 21 116
2 140 -14 19 -14 19 -13 -7z"/>
<path d="M993 2554 c-9 -23 5 -175 23 -258 17 -77 86 -259 108 -289 14 -18 16
-17 55 9 23 14 41 29 41 33 0 3 -15 36 -34 73 -42 81 -95 260 -103 348 -3 36
-10 73 -15 83 -11 22 -66 23 -75 1z"/>
</g>
</svg>
